<?xml version="1.0" encoding="utf-8"?>
<svg version="1.1" xmlns:xlink="http://www.w3.org/1999/xlink" width="12px" height="7px" xmlns="http://www.w3.org/2000/svg">
  <g transform="matrix(1 0 0 1 -321 -238 )">
    <path d="M 11.8797595190381 0.651088201603671  C 11.9599198396794 0.723431335115181  12 0.806625938653425  12 0.900672012218402  C 12 0.99471808578338  11.9599198396794 1.07791268932162  11.8797595190381 1.15025582283315  L 6.27655310621243 6.20704085528829  C 6.19639278557115 6.27938398879982  6.10420841683366 6.31555555555557  6 6.31555555555557  C 5.89579158316634 6.31555555555557  5.80360721442885 6.27938398879982  5.72344689378757 6.20704085528829  L 0.120240480961919 1.15025582283315  C 0.0400801603206397 1.07791268932162  0 0.99471808578338  0 0.900672012218402  C 0 0.806625938653425  0.0400801603206397 0.723431335115181  0.120240480961919 0.651088201603671  L 0.72144288577154 0.108514700267273  C 0.801603206412819 0.0361715667557632  0.893787575150303 0  0.997995991983966 0  C 1.10220440881763 0  1.19438877755511 0.0361715667557632  1.27454909819639 0.108514700267273  L 6 4.37314242077129  L 10.7254509018036 0.108514700267273  C 10.8056112224449 0.0361715667557632  10.8977955911824 0  11.002004008016 0  C 11.1062124248497 0  11.1983967935872 0.0361715667557632  11.2785571142285 0.108514700267273  L 11.8797595190381 0.651088201603671  Z " fill-rule="nonzero" fill="#dcdfe6" stroke="none" transform="matrix(1 0 0 1 321 238 )" />
  </g>
</svg>