<?xml version="1.0" encoding="utf-8"?>
<svg version="1.1" xmlns:xlink="http://www.w3.org/1999/xlink" width="9px" height="10px" xmlns="http://www.w3.org/2000/svg">
  <g transform="matrix(1 0 0 1 -286 -1910 )">
    <path d="M 8.77377717391304 4.42233632862644  C 8.92459239130435 4.57210098416774  9 4.76465554129225  9 5  C 9 5.23106546854942  8.92459239130435 5.4257595207531  8.77377717391304 5.58408215661104  L 4.79347826086957 9.76251604621309  C 4.63451086956522 9.92083868207103  4.44904891304348 10  4.23709239130435 10  C 4.02921195652174 10  3.84578804347826 9.92083868207103  3.68682065217391 9.76251604621309  L 3.22826086956522 9.2811296534018  C 3.07336956521739 9.11852802738554  2.99592391304348 8.92383397518186  2.99592391304348 8.69704749679076  C 2.99592391304348 8.47026101839966  3.07336956521739 8.27556696619598  3.22826086956522 8.11296534017972  L 5.01970108695652 6.23234916559692  L 0.715353260869565 6.23234916559692  C 0.503396739130435 6.23234916559692  0.331182065217391 6.15211810012837  0.198709239130435 5.99165596919127  C 0.0662364130434783 5.83119383825417  0 5.63756953359007  0 5.41078305519897  L 0 4.58921694480103  C 0 4.36243046640993  0.0662364130434783 4.16880616174583  0.198709239130435 4.00834403080873  C 0.331182065217391 3.84788189987163  0.503396739130435 3.76765083440308  0.715353260869565 3.76765083440308  L 5.01970108695652 3.76765083440308  L 3.22826086956522 1.8806161745828  C 3.07336956521739 1.72657252888318  2.99592391304348 1.53401797175867  2.99592391304348 1.30295250320924  C 2.99592391304348 1.07188703465982  3.07336956521739 0.879332477535302  3.22826086956522 0.725288831835686  L 3.68682065217391 0.24390243902439  C 3.84171195652174 0.0813008130081294  4.02513586956522 0  4.23709239130435 0  C 4.453125 0  4.63858695652174 0.0813008130081294  4.79347826086957 0.24390243902439  L 8.77377717391304 4.42233632862644  Z " fill-rule="nonzero" fill="#aaaaaa" stroke="none" fill-opacity="0.8" transform="matrix(1 0 0 1 286 1910 )" />
  </g>
</svg>